<svg xmlns="http://www.w3.org/2000/svg" xmlns:xlink="http://www.w3.org/1999/xlink" width="200" zoomAndPan="magnify" viewBox="0 0 150 149.999998" height="200" preserveAspectRatio="xMidYMid meet" version="1.0"><defs><clipPath id="id1"><path d="M 1.945312 1.5 L 148.945312 1.5 L 148.945312 32 L 1.945312 32 Z M 1.945312 1.5 " clip-rule="nonzero"/></clipPath><clipPath id="id2"><path d="M 1.945312 41 L 148.945312 41 L 148.945312 73 L 1.945312 73 Z M 1.945312 41 " clip-rule="nonzero"/></clipPath><clipPath id="id3"><path d="M 1.945312 81 L 148.945312 81 L 148.945312 112.5 L 1.945312 112.5 Z M 1.945312 81 " clip-rule="nonzero"/></clipPath></defs><g clip-path="url(#id1)"><path fill="#ffffff" d="M 133.757812 31.996094 L 17.113281 31.996094 C 8.734375 31.996094 1.941406 25.167969 1.941406 16.746094 C 1.941406 8.324219 8.734375 1.496094 17.113281 1.496094 L 133.757812 1.496094 C 142.140625 1.496094 148.933594 8.324219 148.933594 16.746094 C 148.933594 25.167969 142.140625 31.996094 133.757812 31.996094 " fill-opacity="1" fill-rule="nonzero"/></g><g clip-path="url(#id2)"><path fill="#ffffff" d="M 133.757812 72.242188 L 17.113281 72.242188 C 8.734375 72.242188 1.941406 65.414062 1.941406 56.992188 C 1.941406 48.570312 8.734375 41.742188 17.113281 41.742188 L 133.757812 41.742188 C 142.140625 41.742188 148.933594 48.570312 148.933594 56.992188 C 148.933594 65.414062 142.140625 72.242188 133.757812 72.242188 " fill-opacity="1" fill-rule="nonzero"/></g><g clip-path="url(#id3)"><path fill="#ffffff" d="M 133.757812 112.488281 L 17.113281 112.488281 C 8.734375 112.488281 1.941406 105.660156 1.941406 97.234375 C 1.941406 88.8125 8.734375 81.984375 17.113281 81.984375 L 133.757812 81.984375 C 142.140625 81.984375 148.933594 88.8125 148.933594 97.234375 C 148.933594 105.660156 142.140625 112.488281 133.757812 112.488281 " fill-opacity="1" fill-rule="nonzero"/></g></svg>