<svg xmlns="http://www.w3.org/2000/svg" xmlns:xlink="http://www.w3.org/1999/xlink" width="200" zoomAndPan="magnify" viewBox="0 0 150 149.999998" height="200" preserveAspectRatio="xMidYMid meet" version="1.0"><defs><g/><clipPath id="id1"><path d="M 20.371094 28 L 114.871094 28 L 114.871094 69 L 20.371094 69 Z M 20.371094 28 " clip-rule="nonzero"/></clipPath><clipPath id="id2"><path d="M 27 8 L 114.871094 8 L 114.871094 73 L 27 73 Z M 27 8 " clip-rule="nonzero"/></clipPath></defs><g fill="#bc80ff" fill-opacity="1"><g transform="translate(5.632074, 144.258562)"><g><path d="M 74.609375 -125.546875 C 95.898438 -125.546875 112.34375 -120.101562 123.9375 -109.21875 C 135.53125 -98.34375 141.328125 -82.503906 141.328125 -61.703125 C 141.328125 -40.890625 135.53125 -25.039062 123.9375 -14.15625 C 112.34375 -3.28125 95.898438 2.15625 74.609375 2.15625 C 53.328125 2.15625 36.914062 -3.253906 25.375 -14.078125 C 13.84375 -24.898438 8.078125 -40.773438 8.078125 -61.703125 C 8.078125 -82.628906 13.84375 -98.5 25.375 -109.3125 C 36.914062 -120.132812 53.328125 -125.546875 74.609375 -125.546875 Z M 74.609375 -95.953125 C 66.117188 -95.953125 59.660156 -93.378906 55.234375 -88.234375 C 50.816406 -83.097656 48.609375 -76.164062 48.609375 -67.4375 L 48.609375 -55.953125 C 48.609375 -47.222656 50.816406 -40.285156 55.234375 -35.140625 C 59.660156 -30.003906 66.117188 -27.4375 74.609375 -27.4375 C 83.097656 -27.4375 89.582031 -30.003906 94.0625 -35.140625 C 98.550781 -40.285156 100.796875 -47.222656 100.796875 -55.953125 L 100.796875 -67.4375 C 100.796875 -76.164062 98.550781 -83.097656 94.0625 -88.234375 C 89.582031 -93.378906 83.097656 -95.953125 74.609375 -95.953125 Z M 74.609375 -95.953125 "/></g></g></g><path stroke-linecap="butt" transform="matrix(0.90654, 0, 0, 0.90654, -2.29483, -48.602573)" fill="none" stroke-linejoin="miter" d="M 82.307579 65.514607 C 105.782817 65.514607 123.914938 71.521303 136.699635 83.530387 C 149.514495 95.509307 155.921925 112.982158 155.921925 135.940319 C 155.921925 158.90279 149.514495 176.388567 136.699635 188.39765 C 123.914938 200.376571 105.782817 206.366031 82.307579 206.366031 C 58.832342 206.366031 40.721765 200.411043 27.967231 188.496756 C 15.247168 176.547999 8.887137 159.02775 8.887137 135.940319 C 8.887137 112.852889 15.247168 95.349876 27.967231 83.43559 C 40.721765 71.486832 58.832342 65.514607 82.307579 65.514607 Z M 82.307579 98.167938 C 72.939891 98.167938 65.804246 101.003237 60.909263 106.669525 C 56.048751 112.335813 53.618495 119.984225 53.618495 129.61476 L 53.618495 142.270188 C 53.618495 151.896414 56.048751 159.544825 60.909263 165.211114 C 65.804246 170.88171 72.939891 173.7127 82.307579 173.7127 C 91.679577 173.7127 98.828148 170.88171 103.753295 165.211114 C 108.712912 159.544825 111.194876 151.896414 111.194876 142.270188 L 111.194876 129.61476 C 111.194876 119.984225 108.712912 112.335813 103.753295 106.669525 C 98.828148 101.003237 91.679577 98.167938 82.307579 98.167938 Z M 82.307579 98.167938 " stroke="#ffffff" stroke-width="7.419638" stroke-opacity="1" stroke-miterlimit="4"/><g clip-path="url(#id1)"><path fill="#ffffff" d="M 59.941406 48.625 C 59.941406 59.484375 51.09375 68.265625 40.15625 68.265625 C 29.214844 68.265625 20.371094 59.484375 20.371094 48.625 C 20.371094 37.769531 29.214844 28.988281 40.15625 28.988281 C 51.09375 28.988281 59.941406 37.769531 59.941406 48.625 Z M 95.085938 28.988281 C 84.148438 28.988281 75.300781 37.769531 75.300781 48.625 C 75.300781 59.484375 84.148438 68.265625 95.085938 68.265625 C 106.027344 68.265625 114.871094 59.484375 114.871094 48.625 C 114.871094 37.769531 106.027344 28.988281 95.085938 28.988281 Z M 95.085938 28.988281 " fill-opacity="1" fill-rule="nonzero"/></g><g clip-path="url(#id2)"><path fill="#000000" d="M 76.464844 71.152344 C 70.296875 73 63.546875 72.886719 57.496094 70.804688 C 56.332031 70.460938 55.519531 69.1875 55.867188 67.917969 C 56.214844 66.761719 57.496094 65.953125 58.777344 66.300781 C 64.128906 68.148438 69.832031 68.265625 75.300781 66.648438 C 78.210938 65.839844 79.375 70.230469 76.464844 71.152344 Z M 59.125 45.507812 C 59.125 38.230469 53.308594 32.453125 45.976562 32.453125 C 38.757812 32.453125 32.824219 38.34375 32.824219 45.507812 C 32.824219 52.667969 38.757812 58.5625 45.976562 58.5625 C 53.308594 58.5625 59.125 52.667969 59.125 45.507812 Z M 101.136719 32.453125 C 93.921875 32.453125 87.988281 38.34375 87.988281 45.507812 C 87.988281 52.667969 93.921875 58.5625 101.136719 58.5625 C 108.355469 58.5625 114.289062 52.667969 114.289062 45.507812 C 114.289062 38.34375 108.355469 32.453125 101.136719 32.453125 Z M 48.1875 12.929688 C 49.464844 13.046875 50.511719 11.777344 50.511719 10.621094 C 50.511719 9.351562 49.464844 8.425781 48.1875 8.3125 C 41.4375 7.734375 34.6875 9.234375 28.632812 12.355469 C 25.957031 13.738281 28.285156 17.78125 30.960938 16.398438 C 36.316406 13.625 42.25 12.46875 48.1875 12.929688 Z M 104.980469 16.398438 C 107.65625 17.78125 109.984375 13.855469 107.308594 12.355469 C 101.371094 9.234375 94.503906 7.734375 87.871094 8.3125 C 86.589844 8.425781 85.542969 9.351562 85.542969 10.621094 C 85.542969 11.777344 86.589844 13.046875 87.871094 12.929688 C 93.808594 12.46875 99.742188 13.625 104.980469 16.398438 Z M 104.980469 16.398438 " fill-opacity="1" fill-rule="nonzero"/></g></svg>