<svg xmlns="http://www.w3.org/2000/svg" xmlns:xlink="http://www.w3.org/1999/xlink" width="200" zoomAndPan="magnify" viewBox="0 0 150 149.999998" height="200" preserveAspectRatio="xMidYMid meet" version="1.0"><defs><clipPath id="id1"><path d="M 16.269531 4.316406 L 134 4.316406 L 134 145.316406 L 16.269531 145.316406 Z M 16.269531 4.316406 " clip-rule="nonzero"/></clipPath></defs><g clip-path="url(#id1)"><path fill="#ffffff" d="M 126.507812 58.058594 C 126.15625 57.183594 125.671875 56.375 125.078125 55.65625 C 124.960938 55.515625 124.84375 55.367188 124.714844 55.230469 L 124.246094 54.765625 C 122.644531 53.28125 120.496094 52.367188 118.136719 52.367188 C 116.625 52.367188 115.214844 52.769531 113.964844 53.429688 C 113.320312 53.773438 112.703125 54.160156 112.160156 54.640625 L 111.433594 55.367188 C 111.253906 55.566406 111.113281 55.796875 110.953125 56.007812 C 109.835938 57.496094 109.148438 59.3125 109.148438 61.308594 C 109.148438 63.378906 109.859375 65.28125 111.046875 66.796875 C 110.765625 66.4375 110.515625 66.054688 110.292969 65.65625 L 110.269531 65.667969 C 114.058594 71.960938 116.105469 79.195312 116.105469 86.617188 C 116.105469 109.105469 97.71875 127.402344 75.117188 127.402344 C 52.515625 127.402344 34.128906 109.105469 34.128906 86.617188 C 34.128906 67.660156 47.234375 51.71875 69.351562 47.175781 L 62.542969 74.4375 L 104.476562 37.167969 L 59.5625 4.34375 L 70.746094 28.773438 C 70.472656 28.804688 70.210938 28.894531 69.957031 29.011719 C 37.203125 33.929688 16.242188 57.867188 16.242188 86.617188 C 16.242188 118.921875 42.652344 145.195312 75.117188 145.195312 C 107.582031 145.195312 133.992188 118.921875 133.992188 86.617188 C 133.992188 76.554688 131.375 66.730469 126.507812 58.058594 " fill-opacity="1" fill-rule="nonzero"/></g></svg>