<svg xmlns="http://www.w3.org/2000/svg" xmlns:xlink="http://www.w3.org/1999/xlink" width="200" zoomAndPan="magnify" viewBox="0 0 150 149.999998" height="200" preserveAspectRatio="xMidYMid meet" version="1.0"><defs><clipPath id="id1"><path d="M 108 22 L 150 22 L 150 63 L 108 63 Z M 108 22 " clip-rule="nonzero"/></clipPath><clipPath id="id2"><path d="M 0 22 L 42 22 L 42 63 L 0 63 Z M 0 22 " clip-rule="nonzero"/></clipPath></defs><path fill="#ffde17" d="M 75 0 L 83.257812 16.730469 L 101.71875 19.414062 L 88.363281 32.4375 L 91.511719 50.828125 L 75 42.144531 L 58.484375 50.828125 L 61.636719 32.4375 L 48.277344 19.414062 L 66.742188 16.730469 Z M 75 0 " fill-opacity="1" fill-rule="nonzero"/><g clip-path="url(#id1)"><path fill="#ffde17" d="M 131.472656 22.214844 L 135.917969 35.957031 L 149.761719 40.085938 L 138.066406 48.5625 L 138.417969 63.003906 L 126.738281 54.5 L 113.113281 59.292969 L 117.59375 45.5625 L 108.824219 34.085938 L 123.269531 34.101562 Z M 131.472656 22.214844 " fill-opacity="1" fill-rule="nonzero"/></g><g clip-path="url(#id2)"><path fill="#ffde17" d="M 18.527344 22.214844 L 14.082031 35.957031 L 0.238281 40.085938 L 11.933594 48.5625 L 11.582031 63.003906 L 23.261719 54.5 L 36.886719 59.292969 L 32.40625 45.5625 L 41.175781 34.085938 L 26.730469 34.101562 Z M 18.527344 22.214844 " fill-opacity="1" fill-rule="nonzero"/></g></svg>