<svg xmlns="http://www.w3.org/2000/svg" xmlns:xlink="http://www.w3.org/1999/xlink" width="200" zoomAndPan="magnify" viewBox="0 0 150 149.999998" height="200" preserveAspectRatio="xMidYMid meet" version="1.0"><defs><clipPath id="id1"><path d="M 19 6.285156 L 90 6.285156 L 90 92 L 19 92 Z M 19 6.285156 " clip-rule="nonzero"/></clipPath></defs><g clip-path="url(#id1)"><path fill="#ffffff" d="M 65.304688 88.945312 L 65.304688 44.578125 L 85.96875 44.578125 C 88.921875 44.578125 90.453125 41.285156 88.4375 39.269531 L 56.859375 7.691406 C 55.523438 6.359375 53.257812 6.359375 51.921875 7.691406 L 20.34375 39.269531 C 18.328125 41.285156 19.859375 44.578125 22.8125 44.578125 L 43.34375 44.578125 L 43.34375 88.945312 C 43.34375 90.550781 44.640625 91.851562 46.242188 91.851562 L 62.40625 91.851562 C 64.007812 91.851562 65.304688 90.550781 65.304688 88.945312 " fill-opacity="1" fill-rule="nonzero"/></g><path fill="#ffffff" d="M 97.230469 143.636719 L 128.808594 112.058594 C 130.824219 110.042969 129.292969 106.753906 126.339844 106.753906 L 105.675781 106.753906 L 105.675781 62.382812 C 105.675781 60.78125 104.378906 59.480469 102.777344 59.480469 L 86.613281 59.480469 C 85.011719 59.480469 83.714844 60.78125 83.714844 62.382812 L 83.714844 106.753906 L 63.183594 106.753906 C 60.230469 106.753906 58.695312 110.042969 60.714844 112.058594 L 92.289062 143.636719 C 93.625 144.972656 95.894531 144.972656 97.230469 143.636719 " fill-opacity="1" fill-rule="nonzero"/></svg>