<svg xmlns="http://www.w3.org/2000/svg" xmlns:xlink="http://www.w3.org/1999/xlink" width="200" zoomAndPan="magnify" viewBox="0 0 150 149.999998" height="200" preserveAspectRatio="xMidYMid meet" version="1.0"><defs><g/><clipPath id="id1"><path d="M 26.789062 73 L 38 73 L 38 85 L 26.789062 85 Z M 26.789062 73 " clip-rule="nonzero"/></clipPath><clipPath id="id2"><path d="M 26.789062 72 L 39 72 L 39 86 L 26.789062 86 Z M 26.789062 72 " clip-rule="nonzero"/></clipPath></defs><g fill="#bc80ff" fill-opacity="1"><g transform="translate(13.324761, 143.253479)"><g><path d="M 123.71875 0 L 81.09375 0 L 60.90625 -34.03125 L 60.265625 -34.03125 L 40.078125 0 L 0.640625 0 L 39.75 -57.875 L 4.453125 -109.40625 L 46.90625 -109.40625 L 63.453125 -81.421875 L 64.078125 -81.421875 L 80.78125 -109.40625 L 120.0625 -109.40625 L 84.59375 -57.71875 Z M 123.71875 0 "/></g></g></g><path stroke-linecap="butt" transform="matrix(0.803732, 0, 0, 0.803732, 6.296827, -27.735786)" fill="none" stroke-linejoin="miter" d="M 153.940129 204.001265 L 100.906283 204.001265 L 75.78908 161.640286 L 74.967717 161.640286 L 49.850514 204.001265 L 0.772822 204.001265 L 49.461703 131.978852 L 5.555199 67.883328 L 58.350899 67.883328 L 78.928731 102.70623 L 79.750094 102.70623 L 100.517472 67.883328 L 149.352157 67.883328 L 105.251248 132.173258 Z M 153.940129 204.001265 " stroke="#ffffff" stroke-width="7.419638" stroke-opacity="1" stroke-miterlimit="4"/><path fill="#000000" d="M 69.4375 46.519531 C 69.273438 47.386719 69.132812 48.257812 69.007812 49.128906 C 68.886719 50.003906 68.785156 50.871094 68.699219 51.738281 C 68.617188 52.605469 68.554688 53.46875 68.515625 54.320312 C 68.472656 55.175781 68.453125 56.019531 68.453125 56.851562 C 68.453125 57.683594 68.472656 58.5 68.515625 59.300781 C 68.558594 60.105469 68.621094 60.886719 68.703125 61.652344 C 68.785156 62.417969 68.886719 63.160156 69.011719 63.878906 C 69.132812 64.597656 69.277344 65.292969 69.4375 65.960938 C 69.601562 66.628906 69.78125 67.265625 69.984375 67.875 C 70.183594 68.484375 70.398438 69.0625 70.636719 69.605469 C 70.871094 70.152344 71.125 70.664062 71.390625 71.136719 C 71.660156 71.613281 71.945312 72.050781 72.246094 72.453125 C 72.546875 72.855469 72.859375 73.214844 73.1875 73.539062 C 73.511719 73.863281 73.851562 74.144531 74.207031 74.386719 C 74.558594 74.628906 74.921875 74.828125 75.292969 74.984375 C 75.667969 75.144531 76.050781 75.257812 76.441406 75.332031 C 76.832031 75.40625 77.230469 75.433594 77.632812 75.421875 C 78.039062 75.410156 78.449219 75.351562 78.863281 75.253906 C 79.277344 75.15625 79.695312 75.015625 80.117188 74.832031 C 80.539062 74.648438 80.960938 74.421875 81.382812 74.15625 C 81.804688 73.890625 82.226562 73.585938 82.648438 73.238281 C 83.066406 72.890625 83.484375 72.503906 83.898438 72.082031 C 84.3125 71.65625 84.71875 71.199219 85.125 70.699219 C 85.527344 70.203125 85.925781 69.671875 86.3125 69.109375 C 86.703125 68.542969 87.082031 67.949219 87.453125 67.320312 C 87.824219 66.691406 88.1875 66.035156 88.535156 65.351562 C 88.886719 64.667969 89.222656 63.960938 89.546875 63.226562 C 89.871094 62.492188 90.179688 61.734375 90.476562 60.960938 C 90.773438 60.183594 91.054688 59.386719 91.320312 58.574219 C 91.585938 57.765625 91.832031 56.9375 92.066406 56.097656 C 92.296875 55.257812 92.511719 54.410156 92.707031 53.550781 C 92.902344 52.691406 93.078125 51.828125 93.238281 50.957031 C 93.398438 50.089844 93.542969 49.21875 93.664062 48.347656 C 93.789062 47.472656 93.890625 46.605469 93.972656 45.738281 C 94.054688 44.871094 94.117188 44.007812 94.160156 43.15625 C 94.199219 42.300781 94.222656 41.457031 94.222656 40.625 C 94.222656 39.792969 94.199219 38.976562 94.160156 38.175781 C 94.117188 37.371094 94.054688 36.589844 93.972656 35.824219 C 93.890625 35.058594 93.785156 34.316406 93.664062 33.597656 C 93.539062 32.878906 93.398438 32.183594 93.234375 31.515625 C 93.070312 30.847656 92.890625 30.210938 92.691406 29.601562 C 92.492188 28.992188 92.273438 28.414062 92.039062 27.867188 C 91.800781 27.324219 91.550781 26.8125 91.28125 26.339844 C 91.011719 25.863281 90.726562 25.425781 90.429688 25.023438 C 90.128906 24.621094 89.816406 24.261719 89.488281 23.9375 C 89.160156 23.613281 88.820312 23.332031 88.46875 23.089844 C 88.117188 22.847656 87.753906 22.648438 87.378906 22.492188 C 87.007812 22.332031 86.625 22.21875 86.234375 22.144531 C 85.84375 22.070312 85.445312 22.042969 85.039062 22.054688 C 84.632812 22.066406 84.222656 22.121094 83.808594 22.222656 C 83.394531 22.320312 82.976562 22.460938 82.554688 22.644531 C 82.136719 22.828125 81.714844 23.054688 81.292969 23.320312 C 80.867188 23.585938 80.449219 23.890625 80.027344 24.238281 C 79.605469 24.585938 79.191406 24.972656 78.777344 25.394531 C 78.363281 25.820312 77.953125 26.277344 77.550781 26.777344 C 77.144531 27.273438 76.75 27.804688 76.359375 28.367188 C 75.972656 28.933594 75.589844 29.527344 75.21875 30.15625 C 74.847656 30.785156 74.488281 31.441406 74.140625 32.125 C 73.789062 32.808594 73.453125 33.515625 73.128906 34.25 C 72.804688 34.984375 72.492188 35.742188 72.195312 36.515625 C 71.898438 37.292969 71.617188 38.089844 71.355469 38.898438 C 71.089844 39.710938 70.839844 40.539062 70.609375 41.378906 C 70.375 42.21875 70.164062 43.066406 69.96875 43.925781 C 69.769531 44.785156 69.59375 45.648438 69.4375 46.519531 Z M 69.4375 46.519531 " fill-opacity="1" fill-rule="evenodd"/><path fill="#ffffff" d="M 69.621094 48.835938 C 69.476562 49.617188 69.347656 50.398438 69.238281 51.179688 C 69.128906 51.964844 69.035156 52.746094 68.960938 53.523438 C 68.886719 54.300781 68.832031 55.074219 68.792969 55.839844 C 68.757812 56.605469 68.738281 57.363281 68.738281 58.109375 C 68.738281 58.855469 68.757812 59.589844 68.796875 60.308594 C 68.832031 61.027344 68.890625 61.730469 68.964844 62.417969 C 69.039062 63.105469 69.128906 63.769531 69.242188 64.414062 C 69.351562 65.0625 69.480469 65.683594 69.625 66.285156 C 69.769531 66.882812 69.933594 67.457031 70.113281 68.003906 C 70.292969 68.550781 70.488281 69.066406 70.699219 69.554688 C 70.910156 70.046875 71.136719 70.503906 71.378906 70.929688 C 71.617188 71.355469 71.875 71.75 72.144531 72.109375 C 72.410156 72.46875 72.691406 72.792969 72.988281 73.082031 C 73.28125 73.375 73.585938 73.628906 73.902344 73.84375 C 74.21875 74.0625 74.542969 74.238281 74.878906 74.382812 C 75.214844 74.523438 75.554688 74.628906 75.90625 74.691406 C 76.257812 74.757812 76.617188 74.785156 76.980469 74.773438 C 77.34375 74.761719 77.710938 74.710938 78.082031 74.625 C 78.453125 74.535156 78.828125 74.410156 79.207031 74.246094 C 79.585938 74.078125 79.960938 73.878906 80.339844 73.640625 C 80.722656 73.398438 81.097656 73.125 81.476562 72.8125 C 81.851562 72.503906 82.226562 72.15625 82.597656 71.777344 C 82.96875 71.394531 83.335938 70.984375 83.699219 70.539062 C 84.0625 70.089844 84.417969 69.617188 84.765625 69.109375 C 85.117188 68.601562 85.457031 68.066406 85.789062 67.503906 C 86.121094 66.941406 86.445312 66.351562 86.761719 65.738281 C 87.074219 65.125 87.375 64.488281 87.667969 63.828125 C 87.957031 63.171875 88.238281 62.492188 88.503906 61.796875 C 88.769531 61.097656 89.019531 60.386719 89.257812 59.65625 C 89.496094 58.929688 89.71875 58.1875 89.925781 57.433594 C 90.136719 56.679688 90.328125 55.917969 90.503906 55.148438 C 90.679688 54.378906 90.835938 53.601562 90.980469 52.820312 C 91.125 52.042969 91.253906 51.261719 91.363281 50.476562 C 91.472656 49.695312 91.566406 48.914062 91.640625 48.136719 C 91.714844 47.359375 91.769531 46.585938 91.804688 45.820312 C 91.84375 45.054688 91.863281 44.296875 91.863281 43.550781 C 91.863281 42.804688 91.84375 42.070312 91.804688 41.351562 C 91.769531 40.628906 91.710938 39.929688 91.636719 39.242188 C 91.5625 38.554688 91.472656 37.890625 91.359375 37.242188 C 91.25 36.597656 91.121094 35.976562 90.976562 35.375 C 90.832031 34.777344 90.667969 34.203125 90.488281 33.65625 C 90.308594 33.109375 90.113281 32.59375 89.902344 32.101562 C 89.691406 31.613281 89.464844 31.15625 89.222656 30.730469 C 88.984375 30.304688 88.726562 29.910156 88.457031 29.550781 C 88.191406 29.191406 87.90625 28.867188 87.613281 28.574219 C 87.320312 28.285156 87.015625 28.03125 86.699219 27.816406 C 86.382812 27.597656 86.058594 27.417969 85.722656 27.277344 C 85.386719 27.136719 85.042969 27.03125 84.695312 26.964844 C 84.34375 26.902344 83.984375 26.875 83.621094 26.886719 C 83.257812 26.898438 82.890625 26.945312 82.519531 27.035156 C 82.148438 27.125 81.773438 27.25 81.394531 27.414062 C 81.015625 27.578125 80.636719 27.78125 80.257812 28.019531 C 79.878906 28.257812 79.503906 28.535156 79.125 28.847656 C 78.746094 29.15625 78.375 29.503906 78.003906 29.882812 C 77.632812 30.261719 77.265625 30.675781 76.902344 31.121094 C 76.539062 31.566406 76.183594 32.042969 75.835938 32.550781 C 75.484375 33.058594 75.144531 33.59375 74.8125 34.15625 C 74.476562 34.71875 74.15625 35.308594 73.839844 35.921875 C 73.527344 36.535156 73.226562 37.171875 72.933594 37.828125 C 72.644531 38.488281 72.363281 39.167969 72.097656 39.863281 C 71.832031 40.558594 71.582031 41.273438 71.34375 42.003906 C 71.105469 42.730469 70.882812 43.472656 70.671875 44.226562 C 70.464844 44.976562 70.273438 45.742188 70.097656 46.511719 C 69.921875 47.28125 69.765625 48.058594 69.621094 48.835938 Z M 69.621094 48.835938 " fill-opacity="1" fill-rule="evenodd"/><path fill="#000000" d="M 73.21875 45.929688 C 73.222656 46.8125 73.207031 47.695312 73.167969 48.574219 C 73.132812 49.457031 73.074219 50.328125 73 51.195312 C 72.921875 52.066406 72.828125 52.921875 72.714844 53.769531 C 72.601562 54.617188 72.46875 55.449219 72.316406 56.269531 C 72.167969 57.085938 72 57.886719 71.8125 58.667969 C 71.625 59.449219 71.421875 60.207031 71.203125 60.945312 C 70.984375 61.679688 70.746094 62.390625 70.496094 63.078125 C 70.246094 63.761719 69.976562 64.417969 69.699219 65.046875 C 69.417969 65.671875 69.125 66.265625 68.816406 66.828125 C 68.511719 67.390625 68.191406 67.917969 67.859375 68.414062 C 67.53125 68.90625 67.191406 69.359375 66.839844 69.777344 C 66.488281 70.195312 66.128906 70.574219 65.761719 70.914062 C 65.394531 71.253906 65.023438 71.554688 64.640625 71.808594 C 64.261719 72.066406 63.875 72.28125 63.484375 72.457031 C 63.09375 72.628906 62.703125 72.757812 62.308594 72.847656 C 61.910156 72.933594 61.515625 72.976562 61.117188 72.976562 C 60.71875 72.976562 60.320312 72.933594 59.925781 72.847656 C 59.53125 72.757812 59.136719 72.628906 58.746094 72.457031 C 58.355469 72.28125 57.972656 72.066406 57.589844 71.808594 C 57.210938 71.554688 56.835938 71.253906 56.46875 70.914062 C 56.101562 70.574219 55.742188 70.195312 55.394531 69.777344 C 55.042969 69.359375 54.703125 68.90625 54.371094 68.414062 C 54.042969 67.917969 53.722656 67.390625 53.417969 66.828125 C 53.109375 66.265625 52.816406 65.671875 52.535156 65.046875 C 52.253906 64.417969 51.988281 63.761719 51.738281 63.078125 C 51.484375 62.390625 51.25 61.679688 51.03125 60.945312 C 50.808594 60.207031 50.605469 59.449219 50.421875 58.667969 C 50.234375 57.886719 50.066406 57.085938 49.914062 56.269531 C 49.765625 55.449219 49.632812 54.617188 49.519531 53.769531 C 49.40625 52.921875 49.308594 52.066406 49.234375 51.195312 C 49.160156 50.328125 49.101562 49.457031 49.066406 48.574219 C 49.027344 47.695312 49.011719 46.8125 49.011719 45.929688 C 49.011719 45.042969 49.027344 44.160156 49.066406 43.28125 C 49.101562 42.402344 49.160156 41.527344 49.234375 40.660156 C 49.308594 39.789062 49.40625 38.933594 49.519531 38.085938 C 49.632812 37.238281 49.765625 36.40625 49.914062 35.585938 C 50.066406 34.769531 50.234375 33.96875 50.421875 33.1875 C 50.605469 32.40625 50.808594 31.648438 51.03125 30.910156 C 51.25 30.175781 51.484375 29.464844 51.738281 28.777344 C 51.988281 28.09375 52.253906 27.4375 52.535156 26.808594 C 52.816406 26.183594 53.109375 25.589844 53.417969 25.027344 C 53.722656 24.464844 54.042969 23.9375 54.371094 23.441406 C 54.703125 22.949219 55.042969 22.496094 55.394531 22.078125 C 55.742188 21.660156 56.101562 21.28125 56.46875 20.941406 C 56.835938 20.601562 57.210938 20.304688 57.589844 20.046875 C 57.972656 19.789062 58.355469 19.574219 58.746094 19.398438 C 59.136719 19.226562 59.53125 19.097656 59.925781 19.007812 C 60.320312 18.921875 60.71875 18.878906 61.117188 18.878906 C 61.515625 18.878906 61.910156 18.921875 62.308594 19.007812 C 62.703125 19.097656 63.09375 19.226562 63.484375 19.398438 C 63.875 19.574219 64.261719 19.789062 64.640625 20.046875 C 65.023438 20.304688 65.394531 20.601562 65.761719 20.941406 C 66.128906 21.28125 66.488281 21.660156 66.839844 22.078125 C 67.191406 22.496094 67.53125 22.949219 67.859375 23.441406 C 68.191406 23.9375 68.511719 24.464844 68.816406 25.027344 C 69.125 25.589844 69.417969 26.183594 69.699219 26.808594 C 69.976562 27.4375 70.246094 28.09375 70.496094 28.777344 C 70.746094 29.464844 70.984375 30.175781 71.203125 30.910156 C 71.421875 31.648438 71.625 32.40625 71.8125 33.1875 C 72 33.96875 72.167969 34.769531 72.316406 35.585938 C 72.46875 36.40625 72.601562 37.238281 72.714844 38.085938 C 72.828125 38.933594 72.921875 39.789062 73 40.660156 C 73.074219 41.527344 73.132812 42.402344 73.167969 43.28125 C 73.207031 44.160156 73.222656 45.042969 73.21875 45.929688 Z M 73.21875 45.929688 " fill-opacity="1" fill-rule="evenodd"/><path fill="#ffffff" d="M 72.613281 48.167969 C 72.617188 48.960938 72.601562 49.753906 72.566406 50.542969 C 72.535156 51.332031 72.484375 52.117188 72.414062 52.894531 C 72.347656 53.675781 72.261719 54.445312 72.160156 55.203125 C 72.058594 55.964844 71.9375 56.710938 71.804688 57.445312 C 71.667969 58.179688 71.515625 58.898438 71.351562 59.597656 C 71.183594 60.300781 71 60.980469 70.804688 61.640625 C 70.605469 62.300781 70.394531 62.941406 70.167969 63.554688 C 69.945312 64.171875 69.703125 64.757812 69.453125 65.320312 C 69.203125 65.882812 68.9375 66.417969 68.664062 66.921875 C 68.386719 67.425781 68.101562 67.898438 67.804688 68.34375 C 67.507812 68.785156 67.203125 69.191406 66.890625 69.566406 C 66.574219 69.941406 66.253906 70.28125 65.921875 70.585938 C 65.59375 70.890625 65.257812 71.160156 64.917969 71.390625 C 64.574219 71.621094 64.230469 71.816406 63.878906 71.96875 C 63.53125 72.125 63.175781 72.242188 62.820312 72.320312 C 62.464844 72.398438 62.109375 72.4375 61.753906 72.4375 C 61.398438 72.4375 61.039062 72.398438 60.683594 72.320312 C 60.332031 72.242188 59.976562 72.125 59.628906 71.96875 C 59.277344 71.816406 58.933594 71.621094 58.589844 71.390625 C 58.25 71.160156 57.914062 70.890625 57.585938 70.585938 C 57.253906 70.28125 56.933594 69.941406 56.617188 69.566406 C 56.304688 69.191406 56 68.785156 55.703125 68.34375 C 55.40625 67.898438 55.121094 67.425781 54.84375 66.921875 C 54.570312 66.417969 54.304688 65.882812 54.054688 65.320312 C 53.800781 64.757812 53.5625 64.171875 53.339844 63.554688 C 53.113281 62.941406 52.902344 62.300781 52.703125 61.640625 C 52.507812 60.980469 52.324219 60.300781 52.15625 59.597656 C 51.988281 58.898438 51.839844 58.179688 51.703125 57.445312 C 51.566406 56.710938 51.449219 55.964844 51.347656 55.203125 C 51.246094 54.445312 51.160156 53.675781 51.09375 52.894531 C 51.023438 52.117188 50.972656 51.332031 50.941406 50.542969 C 50.90625 49.753906 50.890625 48.960938 50.894531 48.167969 C 50.890625 47.375 50.90625 46.582031 50.941406 45.792969 C 50.972656 45.003906 51.023438 44.21875 51.09375 43.441406 C 51.160156 42.660156 51.246094 41.890625 51.347656 41.132812 C 51.449219 40.371094 51.566406 39.625 51.703125 38.890625 C 51.839844 38.15625 51.988281 37.4375 52.15625 36.738281 C 52.324219 36.035156 52.507812 35.355469 52.703125 34.695312 C 52.902344 34.03125 53.113281 33.394531 53.339844 32.78125 C 53.5625 32.164062 53.800781 31.578125 54.054688 31.015625 C 54.304688 30.453125 54.570312 29.917969 54.84375 29.414062 C 55.121094 28.910156 55.40625 28.433594 55.703125 27.992188 C 56 27.550781 56.304688 27.144531 56.617188 26.765625 C 56.933594 26.390625 57.253906 26.050781 57.585938 25.746094 C 57.914062 25.445312 58.25 25.175781 58.589844 24.945312 C 58.933594 24.714844 59.277344 24.519531 59.628906 24.363281 C 59.976562 24.210938 60.332031 24.09375 60.683594 24.015625 C 61.039062 23.9375 61.398438 23.898438 61.753906 23.898438 C 62.109375 23.898438 62.464844 23.9375 62.820312 24.015625 C 63.175781 24.09375 63.53125 24.210938 63.878906 24.363281 C 64.230469 24.519531 64.574219 24.714844 64.917969 24.945312 C 65.257812 25.175781 65.59375 25.445312 65.921875 25.746094 C 66.253906 26.050781 66.574219 26.390625 66.890625 26.765625 C 67.203125 27.144531 67.507812 27.550781 67.804688 27.992188 C 68.101562 28.433594 68.386719 28.910156 68.664062 29.414062 C 68.9375 29.917969 69.203125 30.453125 69.453125 31.015625 C 69.703125 31.578125 69.945312 32.164062 70.167969 32.78125 C 70.394531 33.394531 70.605469 34.03125 70.804688 34.695312 C 71 35.355469 71.183594 36.035156 71.351562 36.738281 C 71.515625 37.4375 71.667969 38.15625 71.804688 38.890625 C 71.9375 39.625 72.058594 40.371094 72.160156 41.132812 C 72.261719 41.890625 72.347656 42.660156 72.414062 43.441406 C 72.484375 44.21875 72.535156 45.003906 72.566406 45.792969 C 72.601562 46.582031 72.617188 47.375 72.613281 48.167969 Z M 72.613281 48.167969 " fill-opacity="1" fill-rule="evenodd"/><path fill="#000000" d="M 64.863281 60.160156 C 64.863281 60.625 64.835938 61.082031 64.777344 61.535156 C 64.722656 61.988281 64.640625 62.429688 64.53125 62.855469 C 64.421875 63.28125 64.289062 63.6875 64.128906 64.074219 C 63.96875 64.457031 63.789062 64.8125 63.589844 65.140625 C 63.386719 65.46875 63.167969 65.757812 62.929688 66.015625 C 62.691406 66.273438 62.441406 66.488281 62.175781 66.667969 C 61.914062 66.84375 61.640625 66.976562 61.359375 67.066406 C 61.078125 67.15625 60.796875 67.203125 60.511719 67.203125 C 60.226562 67.203125 59.941406 67.15625 59.664062 67.066406 C 59.382812 66.976562 59.109375 66.84375 58.847656 66.667969 C 58.582031 66.488281 58.332031 66.273438 58.09375 66.015625 C 57.855469 65.757812 57.636719 65.46875 57.433594 65.140625 C 57.230469 64.8125 57.050781 64.457031 56.894531 64.074219 C 56.734375 63.6875 56.601562 63.28125 56.492188 62.855469 C 56.382812 62.429688 56.300781 61.988281 56.242188 61.535156 C 56.1875 61.082031 56.160156 60.625 56.160156 60.160156 C 56.160156 59.699219 56.1875 59.242188 56.242188 58.789062 C 56.300781 58.335938 56.382812 57.894531 56.492188 57.46875 C 56.601562 57.039062 56.734375 56.636719 56.894531 56.25 C 57.050781 55.867188 57.230469 55.511719 57.433594 55.183594 C 57.636719 54.855469 57.855469 54.566406 58.09375 54.308594 C 58.332031 54.050781 58.582031 53.835938 58.847656 53.65625 C 59.109375 53.480469 59.382812 53.347656 59.664062 53.257812 C 59.941406 53.167969 60.226562 53.121094 60.511719 53.121094 C 60.796875 53.121094 61.078125 53.167969 61.359375 53.257812 C 61.640625 53.347656 61.914062 53.480469 62.175781 53.65625 C 62.441406 53.835938 62.691406 54.050781 62.929688 54.308594 C 63.167969 54.566406 63.386719 54.855469 63.589844 55.183594 C 63.789062 55.511719 63.96875 55.867188 64.128906 56.25 C 64.289062 56.636719 64.421875 57.039062 64.53125 57.46875 C 64.640625 57.894531 64.722656 58.335938 64.777344 58.789062 C 64.835938 59.242188 64.863281 59.699219 64.863281 60.160156 Z M 64.863281 60.160156 " fill-opacity="1" fill-rule="evenodd"/><path fill="#000000" d="M 83.46875 61.867188 C 83.40625 62.324219 83.3125 62.773438 83.195312 63.214844 C 83.078125 63.65625 82.933594 64.082031 82.765625 64.488281 C 82.597656 64.894531 82.410156 65.277344 82.199219 65.636719 C 81.988281 65.996094 81.761719 66.320312 81.515625 66.617188 C 81.269531 66.914062 81.011719 67.171875 80.742188 67.390625 C 80.46875 67.613281 80.191406 67.792969 79.90625 67.929688 C 79.617188 68.066406 79.332031 68.160156 79.042969 68.210938 C 78.75 68.261719 78.464844 68.265625 78.183594 68.226562 C 77.898438 68.183594 77.625 68.101562 77.359375 67.972656 C 77.09375 67.84375 76.84375 67.671875 76.609375 67.460938 C 76.371094 67.25 76.152344 67 75.953125 66.710938 C 75.753906 66.421875 75.578125 66.101562 75.421875 65.75 C 75.265625 65.398438 75.136719 65.019531 75.035156 64.617188 C 74.929688 64.214844 74.855469 63.792969 74.804688 63.355469 C 74.757812 62.917969 74.734375 62.46875 74.742188 62.015625 C 74.75 61.558594 74.789062 61.101562 74.851562 60.640625 C 74.917969 60.183594 75.007812 59.734375 75.125 59.292969 C 75.242188 58.851562 75.386719 58.429688 75.554688 58.019531 C 75.722656 57.613281 75.910156 57.230469 76.121094 56.871094 C 76.332031 56.515625 76.558594 56.1875 76.804688 55.890625 C 77.050781 55.597656 77.308594 55.339844 77.582031 55.117188 C 77.851562 54.898438 78.128906 54.71875 78.414062 54.582031 C 78.703125 54.441406 78.988281 54.347656 79.28125 54.296875 C 79.570312 54.25 79.855469 54.242188 80.140625 54.285156 C 80.421875 54.324219 80.695312 54.410156 80.960938 54.539062 C 81.226562 54.667969 81.476562 54.835938 81.714844 55.050781 C 81.949219 55.261719 82.167969 55.511719 82.367188 55.800781 C 82.566406 56.085938 82.742188 56.40625 82.898438 56.757812 C 83.054688 57.113281 83.183594 57.488281 83.285156 57.890625 C 83.390625 58.292969 83.464844 58.714844 83.515625 59.152344 C 83.5625 59.59375 83.585938 60.039062 83.578125 60.496094 C 83.570312 60.953125 83.53125 61.410156 83.46875 61.867188 Z M 83.46875 61.867188 " fill-opacity="1" fill-rule="evenodd"/><path fill="#000000" d="M 52.070312 4.867188 C 44.632812 6.941406 40.769531 16.539062 43.453125 26.296875 C 43.511719 26.511719 43.574219 26.726562 43.640625 26.9375 C 43.421875 17.808594 47.375 10.136719 53.984375 8.296875 C 58.75 6.96875 63.882812 8.960938 68.054688 13.15625 C 64.320312 6.777344 57.953125 3.226562 52.070312 4.867188 Z M 52.070312 4.867188 " fill-opacity="1" fill-rule="evenodd"/><path fill="#000000" d="M 97.953125 5.054688 C 105.394531 7.128906 109.257812 16.726562 106.574219 26.484375 C 106.515625 26.699219 106.453125 26.914062 106.386719 27.125 C 106.605469 17.996094 102.652344 10.324219 96.042969 8.484375 C 91.277344 7.15625 86.144531 9.148438 81.972656 13.34375 C 85.707031 6.964844 92.074219 3.414062 97.957031 5.054688 Z M 97.953125 5.054688 " fill-opacity="1" fill-rule="evenodd"/><path fill="#000000" d="M 63.113281 85.039062 C 57.605469 88.9375 50.683594 90.046875 44.554688 87.359375 C 40.28125 85.484375 37.089844 82.074219 35.238281 77.902344 C 34.292969 78.253906 33.320312 78.535156 32.335938 78.757812 C 34.089844 83.445312 37.457031 87.324219 42.113281 89.367188 C 49.191406 92.472656 57.320312 90.503906 63.113281 85.039062 Z M 63.113281 85.039062 " fill-opacity="1" fill-rule="evenodd"/><g clip-path="url(#id1)"><path fill="#000000" d="M 35.527344 73.78125 L 37.835938 75.441406 L 30.253906 84.179688 L 26.957031 81.304688 Z M 35.527344 73.78125 " fill-opacity="1" fill-rule="evenodd"/></g><g clip-path="url(#id2)"><path stroke-linecap="butt" transform="matrix(0.15384, 0, 0, 0.154867, 7.363001, -18.806278)" fill="none" stroke-linejoin="miter" d="M 183.074954 597.850927 L 198.081364 608.570794 L 148.79635 664.995127 L 127.365875 646.43084 Z M 183.074954 597.850927 " stroke="#000000" stroke-width="1" stroke-opacity="1" stroke-miterlimit="4"/></g></svg>